<svg width="32" height="17" viewBox="0 0 32 17" fill="none" xmlns="http://www.w3.org/2000/svg">
<g clip-path="url(#clip0_19_188)">
<path d="M31.3896 5.25318C30.9642 4.19884 30.3538 3.27399 29.5399 2.46012C28.7445 1.66474 27.8012 1.03584 26.7653 0.610405C25.748 0.203468 24.6936 0 23.6023 0C22.511 0 21.4566 0.203468 20.4393 0.610405C19.4035 1.03584 18.4601 1.66474 17.6647 2.46012L16.0185 4.25434L14.4277 2.51561L14.3723 2.46012C13.5769 1.66474 12.6335 1.03584 11.5977 0.610405C10.5618 0.203468 9.48902 0 8.39769 0C7.30636 0 6.25202 0.203468 5.23468 0.610405C4.19884 1.03584 3.25549 1.66474 2.46012 2.46012C1.66474 3.25549 1.03584 4.19884 0.610405 5.25318C0.203468 6.25202 0 7.32486 0 8.41619C0 9.50751 0.203468 10.5803 0.610405 11.5792C1.03584 12.6335 1.64624 13.5584 2.46012 14.3723C3.25549 15.1676 4.19884 15.7965 5.23468 16.222C6.23353 16.6289 7.30636 16.8324 8.39769 16.8324C9.48902 16.8324 10.5434 16.6289 11.5607 16.222C12.5965 15.7965 13.5399 15.1676 14.3353 14.3723L15.9815 12.578L17.5723 14.3168L17.6277 14.3723C18.4231 15.1676 19.3665 15.7965 20.4023 16.222C21.4012 16.6289 22.474 16.8324 23.5653 16.8324C24.6566 16.8324 25.711 16.6289 26.7283 16.222C27.7642 15.7965 28.7075 15.1676 29.5029 14.3723C30.2983 13.5769 30.9272 12.6335 31.3526 11.5792C31.7595 10.5618 31.963 9.50751 31.963 8.41619C32 7.32486 31.7965 6.25202 31.3896 5.25318ZM21.6416 13.2439C20.9942 12.985 20.4208 12.5965 19.9399 12.1156L16.5549 8.41619L19.9214 4.73526C20.4208 4.23584 20.9942 3.8659 21.6231 3.60694C22.8624 3.10751 24.2867 3.10751 25.526 3.60694C26.1734 3.8659 26.7468 4.25434 27.2462 4.75376C27.7457 5.25318 28.1341 5.82659 28.3931 6.47399C28.652 7.10289 28.7815 7.75029 28.7815 8.43468C28.7815 9.11908 28.652 9.76647 28.3931 10.3954C28.1341 11.0428 27.7457 11.6162 27.2462 12.1156C26.7468 12.615 26.1734 13.0035 25.526 13.2624C24.3052 13.7434 22.8809 13.7434 21.6416 13.2439ZM15.4451 8.41619L12.0601 12.0971C11.5607 12.5965 10.9873 12.9665 10.3584 13.2254C9.11907 13.7249 7.6948 13.7249 6.45549 13.2254C5.80809 12.9665 5.23468 12.578 4.73526 12.0786C4.23584 11.5792 3.8474 11.0058 3.58844 10.3584C3.32948 9.72948 3.2 9.08208 3.2 8.39769C3.2 7.7133 3.32948 7.0659 3.58844 6.43699C3.8474 5.7896 4.23584 5.21619 4.73526 4.71676C5.23468 4.21734 5.80809 3.8289 6.45549 3.56994C7.08439 3.31098 7.73179 3.1815 8.41618 3.1815C9.08208 3.1815 9.74798 3.31098 10.3769 3.56994C11.0243 3.8289 11.5977 4.21734 12.0786 4.69827L15.4451 8.41619Z" fill="#D997F7"/>
</g>
<defs>
<clipPath id="clip0_19_188">
<rect width="32" height="16.8324" fill="white"/>
</clipPath>
</defs>
</svg>
